<svg width="450" height="450" viewBox="0 0 450 450" fill="none" xmlns="http://www.w3.org/2000/svg">
<rect width="450" height="450" fill="#F7F7F7"/>
<path d="M190.918 171.524C199.283 161.194 215.904 165.342 218.435 178.391C220.287 187.935 213.076 196.839 203.356 197.012C190.066 197.249 182.553 181.854 190.918 171.524Z" fill="#F6F6F6" stroke="#979797"/>
<path d="M141.238 316.835L221.567 209.719C223.551 207.074 227.309 206.551 229.94 208.553C231.998 210.12 232.81 212.835 231.95 215.274L210.303 276.658L201.572 296.348C197.632 305.232 190.923 312.602 182.447 317.356L155.117 332.684C154.18 333.209 153.17 333.592 152.121 333.818C142.383 335.919 135.261 324.805 141.238 316.835Z" stroke="#979797"/>
<path d="M322.555 92.9263L234.482 193.771C232.306 196.261 232.576 200.047 235.082 202.204C237.042 203.891 239.867 204.121 242.074 202.772L297.615 168.836L315.06 156.201C322.931 150.501 328.745 142.406 331.633 133.127L340.944 103.207C341.263 102.182 341.427 101.115 341.43 100.041C341.46 90.0791 329.108 85.4231 322.555 92.9263Z" stroke="#979797"/>
<path d="M245.2 57.1275L224.144 189.352C223.624 192.617 225.863 195.681 229.132 196.178C231.689 196.566 234.205 195.26 235.358 192.946L264.39 134.69L272.46 114.719C276.1 105.709 276.726 95.7623 274.244 86.3666L266.24 56.0706C265.966 55.0325 265.538 54.0413 264.97 53.1299C259.705 44.6734 246.766 47.2895 245.2 57.1275Z" stroke="#979797"/>
<path d="M90.814 246.189L215.771 198.103C218.857 196.915 222.32 198.468 223.485 201.562C224.397 203.983 223.642 206.715 221.618 208.324L170.672 248.834L152.815 260.879C144.759 266.314 135.159 268.994 125.453 268.52L94.1548 266.989C93.0824 266.937 92.0238 266.724 91.0143 266.359C81.6479 262.966 81.5168 249.767 90.814 246.189Z" stroke="#979797"/>
<path d="M324.583 284.038L233.835 225.626C229.204 222.645 226.468 217.438 226.62 211.932C226.818 204.765 231.855 198.616 238.849 197.043C244.022 195.88 249.432 197.411 253.228 201.112L330.254 276.205C331.031 276.963 331.54 277.954 331.702 279.028L331.757 279.395C332.211 282.402 329.726 285.039 326.697 284.765C325.944 284.696 325.219 284.447 324.583 284.038Z" stroke="#979797"/>
<path d="M233.951 190.286C237.635 193.27 240.089 197.024 241.096 200.664C242.103 204.305 241.655 207.786 239.61 210.311C237.566 212.835 234.254 213.998 230.483 213.77C226.714 213.542 222.531 211.921 218.847 208.938C215.163 205.955 212.708 202.2 211.702 198.561C210.695 194.92 211.143 191.438 213.187 188.914C215.232 186.389 218.544 185.227 222.315 185.455C226.084 185.683 230.267 187.303 233.951 190.286Z" fill="#F6F6F6" stroke="#979797"/>
<circle cx="225" cy="203" r="114" stroke="#676767" stroke-width="6"/>
<line x1="275.701" y1="98.305" x2="175.701" y2="305.305" stroke="#676767" stroke-width="6"/>
</svg>
